<svg viewBox="0 0 1040 570" role="img" aria-label="FireBeetle setup and device IDs" xmlns="http://www.w3.org/2000/svg"><title>FireBeetle setup and device IDs</title><defs><marker id="firebeetle-setup-and-device-ids-arr-ink" viewBox="0 0 10 10" refX="9" refY="5" markerWidth="8" markerHeight="8" orient="auto-start-reverse"><path d="M 0 0 L 10 5 L 0 10 Z" fill="#17324d"/></marker><marker id="firebeetle-setup-and-device-ids-arr-muted" viewBox="0 0 10 10" refX="9" refY="5" markerWidth="8" markerHeight="8" orient="auto-start-reverse"><path d="M 0 0 L 10 5 L 0 10 Z" fill="#52657b"/></marker><marker id="firebeetle-setup-and-device-ids-arr-line" viewBox="0 0 10 10" refX="9" refY="5" markerWidth="8" markerHeight="8" orient="auto-start-reverse"><path d="M 0 0 L 10 5 L 0 10 Z" fill="#74899f"/></marker><marker id="firebeetle-setup-and-device-ids-arr-blue" viewBox="0 0 10 10" refX="9" refY="5" markerWidth="8" markerHeight="8" orient="auto-start-reverse"><path d="M 0 0 L 10 5 L 0 10 Z" fill="#1876bd"/></marker><marker id="firebeetle-setup-and-device-ids-arr-cyan" viewBox="0 0 10 10" refX="9" refY="5" markerWidth="8" markerHeight="8" orient="auto-start-reverse"><path d="M 0 0 L 10 5 L 0 10 Z" fill="#007f8c"/></marker><marker id="firebeetle-setup-and-device-ids-arr-purple" viewBox="0 0 10 10" refX="9" refY="5" markerWidth="8" markerHeight="8" orient="auto-start-reverse"><path d="M 0 0 L 10 5 L 0 10 Z" fill="#7751bc"/></marker><marker id="firebeetle-setup-and-device-ids-arr-light" viewBox="0 0 10 10" refX="9" refY="5" markerWidth="8" markerHeight="8" orient="auto-start-reverse"><path d="M 0 0 L 10 5 L 0 10 Z" fill="#eef4f8"/></marker><marker id="firebeetle-setup-and-device-ids-arr-white" viewBox="0 0 10 10" refX="9" refY="5" markerWidth="8" markerHeight="8" orient="auto-start-reverse"><path d="M 0 0 L 10 5 L 0 10 Z" fill="#ffffff"/></marker><marker id="firebeetle-setup-and-device-ids-arr-gold" viewBox="0 0 10 10" refX="9" refY="5" markerWidth="8" markerHeight="8" orient="auto-start-reverse"><path d="M 0 0 L 10 5 L 0 10 Z" fill="#a76a10"/></marker></defs><rect width="1040" height="570" fill="#f8fbfd"/><rect x="25" y="20" width="440" height="70" rx="14" fill="#ffffff" stroke="#007f8c" stroke-width="2"/><text x="245.0" y="63.0" font-size="25" fill="#007f8c" text-anchor="middle" font-weight="600">Independent power source 1</text><rect x="575" y="20" width="440" height="70" rx="14" fill="#ffffff" stroke="#7751bc" stroke-width="2"/><text x="795.0" y="63.0" font-size="25" fill="#7751bc" text-anchor="middle" font-weight="600">Independent power source 2</text><path d="M 245,90 L 245,145" fill="none" stroke="#007f8c" stroke-width="3" stroke-linejoin="round" marker-end="url(#firebeetle-setup-and-device-ids-arr-cyan)"/><path d="M 795,90 L 795,145" fill="none" stroke="#7751bc" stroke-width="3" stroke-linejoin="round" marker-end="url(#firebeetle-setup-and-device-ids-arr-purple)"/><rect x="25" y="145" width="440" height="155" rx="14" fill="#ffffff" stroke="#007f8c" stroke-width="2"/><text x="245.0" y="198.5" font-size="24" fill="#007f8c" text-anchor="middle" font-weight="600">Left FireBeetle</text><text x="245.0" y="230.5" font-size="24" fill="#007f8c" text-anchor="middle" font-weight="450">WEEK7_DEVICE_ID = 1</text><text x="245.0" y="262.5" font-size="24" fill="#007f8c" text-anchor="middle" font-weight="450">38:18:2B:19:82:AE</text><rect x="575" y="145" width="440" height="155" rx="14" fill="#ffffff" stroke="#7751bc" stroke-width="2"/><text x="795.0" y="198.5" font-size="24" fill="#7751bc" text-anchor="middle" font-weight="600">Right FireBeetle</text><text x="795.0" y="230.5" font-size="24" fill="#7751bc" text-anchor="middle" font-weight="450">WEEK7_DEVICE_ID = 2</text><text x="795.0" y="262.5" font-size="24" fill="#7751bc" text-anchor="middle" font-weight="450">38:18:2B:18:9D:6A</text><path d="M 245,300 L 245,363 L 375,363 L 375,395" fill="none" stroke="#007f8c" stroke-width="3" stroke-linejoin="round" marker-end="url(#firebeetle-setup-and-device-ids-arr-cyan)"/><path d="M 795,300 L 795,363 L 665,363 L 665,395" fill="none" stroke="#7751bc" stroke-width="3" stroke-linejoin="round" marker-end="url(#firebeetle-setup-and-device-ids-arr-purple)"/><text x="230" y="345" font-size="21" fill="#17324d" text-anchor="middle" font-weight="500">Authenticated BLE</text><text x="807" y="345" font-size="21" fill="#17324d" text-anchor="middle" font-weight="500">Authenticated BLE</text><rect x="325" y="395" width="390" height="90" rx="14" fill="#ffffff" stroke="#1876bd" stroke-width="2"/><text x="520.0" y="432.0" font-size="24" fill="#1876bd" text-anchor="middle" font-weight="600">Windows relay laptop</text><text x="520.0" y="464.0" font-size="24" fill="#1876bd" text-anchor="middle" font-weight="450">BLE authenticated=True</text><text x="520" y="525" font-size="24" fill="#17324d" text-anchor="middle" font-weight="500">board = firebeetle32     framework = arduino</text><text x="520" y="560" font-size="22" fill="#a76a10" text-anchor="middle" font-weight="500">During BLE demo: neither board is connected to laptop USB</text></svg>
