<svg viewBox="0 0 1040 570" role="img" aria-label="Concurrency on the laptop" xmlns="http://www.w3.org/2000/svg"><title>Concurrency on the laptop</title><defs><marker id="concurrency-on-the-laptop-arr-ink" viewBox="0 0 10 10" refX="9" refY="5" markerWidth="8" markerHeight="8" orient="auto-start-reverse"><path d="M 0 0 L 10 5 L 0 10 Z" fill="#17324d"/></marker><marker id="concurrency-on-the-laptop-arr-muted" viewBox="0 0 10 10" refX="9" refY="5" markerWidth="8" markerHeight="8" orient="auto-start-reverse"><path d="M 0 0 L 10 5 L 0 10 Z" fill="#52657b"/></marker><marker id="concurrency-on-the-laptop-arr-line" viewBox="0 0 10 10" refX="9" refY="5" markerWidth="8" markerHeight="8" orient="auto-start-reverse"><path d="M 0 0 L 10 5 L 0 10 Z" fill="#74899f"/></marker><marker id="concurrency-on-the-laptop-arr-blue" viewBox="0 0 10 10" refX="9" refY="5" markerWidth="8" markerHeight="8" orient="auto-start-reverse"><path d="M 0 0 L 10 5 L 0 10 Z" fill="#1876bd"/></marker><marker id="concurrency-on-the-laptop-arr-cyan" viewBox="0 0 10 10" refX="9" refY="5" markerWidth="8" markerHeight="8" orient="auto-start-reverse"><path d="M 0 0 L 10 5 L 0 10 Z" fill="#007f8c"/></marker><marker id="concurrency-on-the-laptop-arr-purple" viewBox="0 0 10 10" refX="9" refY="5" markerWidth="8" markerHeight="8" orient="auto-start-reverse"><path d="M 0 0 L 10 5 L 0 10 Z" fill="#7751bc"/></marker><marker id="concurrency-on-the-laptop-arr-light" viewBox="0 0 10 10" refX="9" refY="5" markerWidth="8" markerHeight="8" orient="auto-start-reverse"><path d="M 0 0 L 10 5 L 0 10 Z" fill="#eef4f8"/></marker><marker id="concurrency-on-the-laptop-arr-white" viewBox="0 0 10 10" refX="9" refY="5" markerWidth="8" markerHeight="8" orient="auto-start-reverse"><path d="M 0 0 L 10 5 L 0 10 Z" fill="#ffffff"/></marker><marker id="concurrency-on-the-laptop-arr-gold" viewBox="0 0 10 10" refX="9" refY="5" markerWidth="8" markerHeight="8" orient="auto-start-reverse"><path d="M 0 0 L 10 5 L 0 10 Z" fill="#a76a10"/></marker></defs><rect width="1040" height="570" fill="#f8fbfd"/><rect x="15" y="20" width="855" height="405" rx="16" fill="#f3f7fa" stroke="#8fa9bc" stroke-width="2"/><text x="36" y="56" font-size="21" fill="#52657b" text-anchor="start" font-weight="650">ONE ASYNCIO EVENT LOOP</text><text x="847" y="56" font-size="20" fill="#1876bd" text-anchor="end" font-weight="500">ACK window: 32 per device</text><rect x="35" y="90" width="170" height="78" rx="14" fill="#ffffff" stroke="#007f8c" stroke-width="2"/><text x="120.0" y="137.0" font-size="23" fill="#007f8c" text-anchor="middle" font-weight="600">BLE input 1</text><rect x="265" y="90" width="205" height="78" rx="14" fill="#ffffff" stroke="#007f8c" stroke-width="2"/><text x="367.5" y="121.0" font-size="21" fill="#007f8c" text-anchor="middle" font-weight="600">RawInbox 1</text><text x="367.5" y="153.0" font-size="21" fill="#007f8c" text-anchor="middle" font-weight="450">bounded: 64</text><rect x="545" y="90" width="205" height="78" rx="14" fill="#ffffff" stroke="#007f8c" stroke-width="2"/><text x="647.5" y="137.0" font-size="23" fill="#007f8c" text-anchor="middle" font-weight="600">TLS sender 1</text><path d="M 205,129 L 265,129" fill="none" stroke="#007f8c" stroke-width="3" stroke-linejoin="round" marker-end="url(#concurrency-on-the-laptop-arr-cyan)"/><path d="M 470,129 L 545,129" fill="none" stroke="#007f8c" stroke-width="3" stroke-linejoin="round" marker-end="url(#concurrency-on-the-laptop-arr-cyan)"/><rect x="550" y="177" width="200" height="60" rx="14" fill="#ffffff" stroke="#007f8c" stroke-width="2"/><text x="650.0" y="215.0" font-size="23" fill="#007f8c" text-anchor="middle" font-weight="600">ACK reader 1</text><path d="M 570,177 L 570,168" fill="none" stroke="#007f8c" stroke-width="3" stroke-linejoin="round" marker-end="url(#concurrency-on-the-laptop-arr-cyan)"/><text x="307" y="215" font-size="19" fill="#007f8c" text-anchor="middle" font-weight="500">ACK releases a window slot</text><line x1="443" y1="209" x2="548" y2="209" stroke="#007f8c" stroke-width="2"/><path d="M 750,129 L 890,129" fill="none" stroke="#007f8c" stroke-width="3" stroke-linejoin="round" marker-end="url(#concurrency-on-the-laptop-arr-cyan)"/><path d="M 890,195 L 750,195" fill="none" stroke="#007f8c" stroke-width="3" stroke-linejoin="round" marker-end="url(#concurrency-on-the-laptop-arr-cyan)"/><rect x="35" y="260" width="170" height="78" rx="14" fill="#ffffff" stroke="#7751bc" stroke-width="2"/><text x="120.0" y="307.0" font-size="23" fill="#7751bc" text-anchor="middle" font-weight="600">BLE input 2</text><rect x="265" y="260" width="205" height="78" rx="14" fill="#ffffff" stroke="#7751bc" stroke-width="2"/><text x="367.5" y="291.0" font-size="21" fill="#7751bc" text-anchor="middle" font-weight="600">RawInbox 2</text><text x="367.5" y="323.0" font-size="21" fill="#7751bc" text-anchor="middle" font-weight="450">bounded: 64</text><rect x="545" y="260" width="205" height="78" rx="14" fill="#ffffff" stroke="#7751bc" stroke-width="2"/><text x="647.5" y="307.0" font-size="23" fill="#7751bc" text-anchor="middle" font-weight="600">TLS sender 2</text><path d="M 205,299 L 265,299" fill="none" stroke="#7751bc" stroke-width="3" stroke-linejoin="round" marker-end="url(#concurrency-on-the-laptop-arr-purple)"/><path d="M 470,299 L 545,299" fill="none" stroke="#7751bc" stroke-width="3" stroke-linejoin="round" marker-end="url(#concurrency-on-the-laptop-arr-purple)"/><rect x="550" y="347" width="200" height="60" rx="14" fill="#ffffff" stroke="#7751bc" stroke-width="2"/><text x="650.0" y="385.0" font-size="23" fill="#7751bc" text-anchor="middle" font-weight="600">ACK reader 2</text><path d="M 570,347 L 570,338" fill="none" stroke="#7751bc" stroke-width="3" stroke-linejoin="round" marker-end="url(#concurrency-on-the-laptop-arr-purple)"/><text x="307" y="385" font-size="19" fill="#7751bc" text-anchor="middle" font-weight="500">ACK releases a window slot</text><line x1="443" y1="379" x2="548" y2="379" stroke="#7751bc" stroke-width="2"/><path d="M 750,299 L 890,299" fill="none" stroke="#7751bc" stroke-width="3" stroke-linejoin="round" marker-end="url(#concurrency-on-the-laptop-arr-purple)"/><path d="M 890,365 L 750,365" fill="none" stroke="#7751bc" stroke-width="3" stroke-linejoin="round" marker-end="url(#concurrency-on-the-laptop-arr-purple)"/><rect x="890" y="80" width="135" height="300" rx="14" fill="#ffffff" stroke="#1876bd" stroke-width="2"/><text x="957.5" y="238.0" font-size="23" fill="#1876bd" text-anchor="middle" font-weight="600">Ultra96</text><rect x="180" y="450" width="285" height="80" rx="14" fill="#ffffff" stroke="#1876bd" stroke-width="2"/><text x="322.5" y="498.0" font-size="23" fill="#1876bd" text-anchor="middle" font-weight="600">Bounded evidence queue</text><rect x="610" y="450" width="350" height="80" rx="14" fill="#ffffff" stroke="#1876bd" stroke-width="2"/><text x="785.0" y="482.0" font-size="23" fill="#1876bd" text-anchor="middle" font-weight="600">packet-evidence thread</text><text x="785.0" y="514.0" font-size="23" fill="#1876bd" text-anchor="middle" font-weight="450">writes decoded log + JSONL</text><path d="M 465,490 L 610,490" fill="none" stroke="#1876bd" stroke-width="3" stroke-linejoin="round" marker-end="url(#concurrency-on-the-laptop-arr-blue)"/><path d="M 120,425 L 120,490 L 180,490" fill="none" stroke="#74899f" stroke-width="3" stroke-linejoin="round" marker-end="url(#concurrency-on-the-laptop-arr-line)" stroke-dasharray="8 6"/><text x="515" y="565" font-size="23" fill="#17324d" text-anchor="middle" font-weight="500">Native BLE callbacks cross a thread-safe queue boundary.</text></svg>
