<svg viewBox="0 0 1040 570" role="img" aria-label="Concurrency on Ultra96" xmlns="http://www.w3.org/2000/svg"><title>Concurrency on Ultra96</title><defs><marker id="concurrency-on-ultra96-arr-ink" viewBox="0 0 10 10" refX="9" refY="5" markerWidth="8" markerHeight="8" orient="auto-start-reverse"><path d="M 0 0 L 10 5 L 0 10 Z" fill="#17324d"/></marker><marker id="concurrency-on-ultra96-arr-muted" viewBox="0 0 10 10" refX="9" refY="5" markerWidth="8" markerHeight="8" orient="auto-start-reverse"><path d="M 0 0 L 10 5 L 0 10 Z" fill="#52657b"/></marker><marker id="concurrency-on-ultra96-arr-line" viewBox="0 0 10 10" refX="9" refY="5" markerWidth="8" markerHeight="8" orient="auto-start-reverse"><path d="M 0 0 L 10 5 L 0 10 Z" fill="#74899f"/></marker><marker id="concurrency-on-ultra96-arr-blue" viewBox="0 0 10 10" refX="9" refY="5" markerWidth="8" markerHeight="8" orient="auto-start-reverse"><path d="M 0 0 L 10 5 L 0 10 Z" fill="#1876bd"/></marker><marker id="concurrency-on-ultra96-arr-cyan" viewBox="0 0 10 10" refX="9" refY="5" markerWidth="8" markerHeight="8" orient="auto-start-reverse"><path d="M 0 0 L 10 5 L 0 10 Z" fill="#007f8c"/></marker><marker id="concurrency-on-ultra96-arr-purple" viewBox="0 0 10 10" refX="9" refY="5" markerWidth="8" markerHeight="8" orient="auto-start-reverse"><path d="M 0 0 L 10 5 L 0 10 Z" fill="#7751bc"/></marker><marker id="concurrency-on-ultra96-arr-light" viewBox="0 0 10 10" refX="9" refY="5" markerWidth="8" markerHeight="8" orient="auto-start-reverse"><path d="M 0 0 L 10 5 L 0 10 Z" fill="#eef4f8"/></marker><marker id="concurrency-on-ultra96-arr-white" viewBox="0 0 10 10" refX="9" refY="5" markerWidth="8" markerHeight="8" orient="auto-start-reverse"><path d="M 0 0 L 10 5 L 0 10 Z" fill="#ffffff"/></marker><marker id="concurrency-on-ultra96-arr-gold" viewBox="0 0 10 10" refX="9" refY="5" markerWidth="8" markerHeight="8" orient="auto-start-reverse"><path d="M 0 0 L 10 5 L 0 10 Z" fill="#a76a10"/></marker></defs><rect width="1040" height="570" fill="#f8fbfd"/><rect x="15" y="15" width="1008" height="438" rx="16" fill="#f4f7fa" stroke="#8fa9bc" stroke-width="2"/><text x="36" y="48" font-size="21" fill="#52657b" text-anchor="start" font-weight="650">ULTRA96 ASYNCIO EVENT LOOP</text><rect x="35" y="80" width="210" height="80" rx="14" fill="#ffffff" stroke="#1876bd" stroke-width="2"/><text x="140.0" y="112.0" font-size="23" fill="#1876bd" text-anchor="middle" font-weight="600">Ingestion accept</text><text x="140.0" y="144.0" font-size="23" fill="#1876bd" text-anchor="middle" font-weight="450">:8888</text><rect x="330" y="60" width="260" height="80" rx="14" fill="#ffffff" stroke="#007f8c" stroke-width="2"/><text x="460.0" y="92.0" font-size="21" fill="#007f8c" text-anchor="middle" font-weight="600">Device 1 client</text><text x="460.0" y="124.0" font-size="21" fill="#007f8c" text-anchor="middle" font-weight="450">validate + deduplicate</text><rect x="330" y="178" width="260" height="80" rx="14" fill="#ffffff" stroke="#7751bc" stroke-width="2"/><text x="460.0" y="210.0" font-size="21" fill="#7751bc" text-anchor="middle" font-weight="600">Device 2 client</text><text x="460.0" y="242.0" font-size="21" fill="#7751bc" text-anchor="middle" font-weight="450">validate + deduplicate</text><path d="M 245,120 L 287,120 L 287,100 L 330,100" fill="none" stroke="#007f8c" stroke-width="3" stroke-linejoin="round" marker-end="url(#concurrency-on-ultra96-arr-cyan)"/><path d="M 245,140 L 287,140 L 287,218 L 330,218" fill="none" stroke="#7751bc" stroke-width="3" stroke-linejoin="round" marker-end="url(#concurrency-on-ultra96-arr-purple)"/><rect x="720" y="100" width="275" height="115" rx="14" fill="#ffffff" stroke="#1876bd" stroke-width="2"/><text x="857.5" y="133.5" font-size="23" fill="#1876bd" text-anchor="middle" font-weight="600">ResultQueue</text><text x="857.5" y="165.5" font-size="23" fill="#1876bd" text-anchor="middle" font-weight="450">capacity: 32</text><text x="857.5" y="197.5" font-size="23" fill="#1876bd" text-anchor="middle" font-weight="450">freshness: 2 seconds</text><path d="M 590,100 L 650,100 L 650,138 L 720,138" fill="none" stroke="#007f8c" stroke-width="3" stroke-linejoin="round" marker-end="url(#concurrency-on-ultra96-arr-cyan)"/><path d="M 590,218 L 650,218 L 650,185 L 720,185" fill="none" stroke="#7751bc" stroke-width="3" stroke-linejoin="round" marker-end="url(#concurrency-on-ultra96-arr-purple)"/><text x="675" y="78" font-size="19" fill="#17324d" text-anchor="middle" font-weight="500">New result</text><rect x="35" y="328" width="210" height="80" rx="14" fill="#ffffff" stroke="#1876bd" stroke-width="2"/><text x="140.0" y="360.0" font-size="23" fill="#1876bd" text-anchor="middle" font-weight="600">Gateway accept</text><text x="140.0" y="392.0" font-size="23" fill="#1876bd" text-anchor="middle" font-weight="450">:9999</text><rect x="330" y="328" width="245" height="80" rx="14" fill="#ffffff" stroke="#7751bc" stroke-width="2"/><text x="452.5" y="360.0" font-size="23" fill="#7751bc" text-anchor="middle" font-weight="600">Phone subscriber</text><text x="452.5" y="392.0" font-size="23" fill="#7751bc" text-anchor="middle" font-weight="450">SUBSCRIBE</text><path d="M 245,368 L 330,368" fill="none" stroke="#1876bd" stroke-width="3" stroke-linejoin="round" marker-end="url(#concurrency-on-ultra96-arr-blue)"/><rect x="720" y="284" width="275" height="68" rx="14" fill="#ffffff" stroke="#007f8c" stroke-width="2"/><text x="857.5" y="326.0" font-size="23" fill="#007f8c" text-anchor="middle" font-weight="600">Result sender task</text><rect x="720" y="382" width="275" height="55" rx="14" fill="#ffffff" stroke="#1876bd" stroke-width="2"/><text x="857.5" y="417.5" font-size="22" fill="#1876bd" text-anchor="middle" font-weight="600">Connection monitor</text><path d="M 575,350 L 650,350 L 650,318 L 720,318" fill="none" stroke="#7751bc" stroke-width="3" stroke-linejoin="round" marker-end="url(#concurrency-on-ultra96-arr-purple)"/><path d="M 575,387 L 640,387 L 640,408 L 720,408" fill="none" stroke="#7751bc" stroke-width="3" stroke-linejoin="round" marker-end="url(#concurrency-on-ultra96-arr-purple)"/><path d="M 857,215 L 857,284" fill="none" stroke="#007f8c" stroke-width="3" stroke-linejoin="round" marker-end="url(#concurrency-on-ultra96-arr-cyan)"/><rect x="110" y="486" width="300" height="64" rx="14" fill="#ffffff" stroke="#1876bd" stroke-width="2"/><text x="260.0" y="526.0" font-size="23" fill="#1876bd" text-anchor="middle" font-weight="600">External relay laptop</text><rect x="690" y="486" width="300" height="64" rx="14" fill="#ffffff" stroke="#007f8c" stroke-width="2"/><text x="840.0" y="526.0" font-size="22" fill="#007f8c" text-anchor="middle" font-weight="600">External Visualizer iPhone</text><path d="M 450,140 L 450,155 L 255,155 L 255,472 L 195,472 L 195,486" fill="none" stroke="#a76a10" stroke-width="3" stroke-linejoin="round" marker-end="url(#concurrency-on-ultra96-arr-gold)" stroke-dasharray="8 6"/><path d="M 375,258 L 375,280 L 300,280 L 300,472 L 325,472 L 325,486" fill="none" stroke="#a76a10" stroke-width="3" stroke-linejoin="round" marker-end="url(#concurrency-on-ultra96-arr-gold)" stroke-dasharray="8 6"/><text x="340" y="308" font-size="21" fill="#a76a10" text-anchor="start" font-weight="500">Per-stream INGEST_ACK</text><path d="M 995,318 L 1034,318 L 1034,465 L 845,465 L 845,486" fill="none" stroke="#007f8c" stroke-width="3" stroke-linejoin="round" marker-end="url(#concurrency-on-ultra96-arr-cyan)"/><text x="856" y="476" font-size="20" fill="#17324d" text-anchor="middle" font-weight="500"></text></svg>
